<?xml version="1.0" encoding="UTF-8"?>
<svg id="Layer_2" data-name="Layer 2" xmlns="http://www.w3.org/2000/svg" viewBox="0 0 568.12 477.63">
  <defs>
    <style>
      .cls-1 {
        fill: #fff;
      }
    </style>
  </defs>
  <g id="Layer_1-2" data-name="Layer 1">
    <path class="cls-1" d="M568.12,477.63h-140V147.22c-63.48,13.32-121.81,44.73-168.74,91.67-63.77,63.77-98.89,148.56-98.89,238.74H20.49c0-64.45,12.64-127.01,37.56-185.94,24.06-56.88,58.49-107.96,102.33-151.8,43.84-43.84,94.91-78.27,151.8-102.33C371.11,12.64,433.67,0,498.12,0h70v477.63Z"/>
    <path class="cls-1" d="M442.13,448.11c-96.65,0-189.77-28.74-269.28-83.1C95.28,311.98,35.51,238.14,0,151.47l129.55-53.08c25.11,61.28,67.4,113.51,122.31,151.05,56.14,38.38,121.94,58.67,190.27,58.67v140Z"/>
  </g>
</svg>