<?xml version="1.0" encoding="UTF-8"?><svg xmlns="http://www.w3.org/2000/svg" xmlns:xlink="http://www.w3.org/1999/xlink" id="Layer_2" version="1.1" viewBox="0 0 568.1 477.6"><defs><style> .st0 { fill: url(#linear-gradient1); } .st1 { fill: url(#linear-gradient); } </style><linearGradient id="linear-gradient" x1="20.5" y1="238.8" x2="568.1" y2="238.8" gradientUnits="userSpaceOnUse"><stop offset="0" stop-color="#fff"/><stop offset="1" stop-color="#222221"/></linearGradient><linearGradient id="linear-gradient1" x1="0" y1="273.1" x2="428.1" y2="273.1" gradientUnits="userSpaceOnUse"><stop offset="0" stop-color="#222221"/><stop offset="1" stop-color="#fff"/></linearGradient></defs><path class="st1" d="M568.1,477.6h-140V147.2c-63.5,13.3-121.8,44.7-168.7,91.7-63.8,63.8-98.9,148.6-98.9,238.7H20.5c0-64.5,12.6-127,37.6-185.9,24.1-56.9,58.5-108,102.3-151.8,43.8-43.8,94.9-78.3,151.8-102.3C371.1,12.6,433.7,0,498.1,0h70v477.6Z"/><path class="st0" d="M428.1,307.8v140.1c-91.6-2.6-179.6-31.2-255.3-82.9C95.3,312,35.5,238.1,0,151.5l129.5-53.1c25.1,61.3,67.4,113.5,122.3,151,52.3,35.8,113,55.8,176.3,58.4Z"/></svg>